<?xml version="1.0" encoding="UTF-8"?>
<!DOCTYPE svg PUBLIC "-//W3C//DTD SVG 1.1//EN" "http://www.w3.org/Graphics/SVG/1.1/DTD/svg11.dtd">
<svg xmlns="http://www.w3.org/2000/svg" version="1.1" width="128px" height="128px" style="shape-rendering:geometricPrecision; text-rendering:geometricPrecision; image-rendering:optimizeQuality; fill-rule:evenodd; clip-rule:evenodd" xmlns:xlink="http://www.w3.org/1999/xlink">
<g><path style="opacity:0.983" fill="#212532" d="M 9.5,-0.5 C 45.5,-0.5 81.5,-0.5 117.5,-0.5C 121.833,1.83333 125.167,5.16667 127.5,9.5C 127.5,45.5 127.5,81.5 127.5,117.5C 125.167,121.833 121.833,125.167 117.5,127.5C 81.5,127.5 45.5,127.5 9.5,127.5C 5.16667,125.167 1.83333,121.833 -0.5,117.5C -0.5,81.5 -0.5,45.5 -0.5,9.5C 1.83333,5.16667 5.16667,1.83333 9.5,-0.5 Z"/></g>
<g><path style="opacity:1" fill="#474642" d="M 10.5,3.5 C 45.8349,3.33335 81.1682,3.50001 116.5,4C 118.333,5.83333 120.167,7.66667 122,9.5C 123.653,44.7484 123.986,80.0818 123,115.5C 121.708,118.288 119.874,120.622 117.5,122.5C 82.1714,123.667 46.838,123.833 11.5,123C 9.04003,121.542 6.87337,119.709 5,117.5C 3.34685,81.9182 3.01352,46.2515 4,10.5C 6.29927,8.27211 8.46594,5.93878 10.5,3.5 Z"/></g>
<g><path style="opacity:1" fill="#262e43" d="M 25.5,16.5 C 50.1689,16.3334 74.8356,16.5 99.5,17C 102.539,18.0314 105.039,19.8647 107,22.5C 107.667,49.5 107.667,76.5 107,103.5C 106.31,106.196 104.81,108.363 102.5,110C 76.8958,111.639 51.2292,111.972 25.5,111C 24,109.5 22.5,108 21,106.5C 19.3588,78.5618 19.0255,50.5618 20,22.5C 22.0396,20.6298 23.8729,18.6298 25.5,16.5 Z"/></g>
<g><path style="opacity:1" fill="#d8d8a2" d="M 96.5,19.5 C 96.5,49.1667 96.5,78.8333 96.5,108.5C 72.7431,108.98 49.0765,108.48 25.5,107C 24.2986,106.097 23.4652,104.931 23,103.5C 22.3333,77.1667 22.3333,50.8333 23,24.5C 23.4652,23.0692 24.2986,21.9025 25.5,21C 49.0765,19.5202 72.7431,19.0202 96.5,19.5 Z"/></g>
<g><path style="opacity:1" fill="#51514a" d="M 31.5,31.5 C 50.8448,31.1671 70.1782,31.5004 89.5,32.5C 89.2907,33.086 88.9574,33.586 88.5,34C 69.8333,34.6667 51.1667,34.6667 32.5,34C 31.7476,33.3292 31.4142,32.4959 31.5,31.5 Z"/></g>
<g><path style="opacity:1" fill="#8b8d5c" d="M 99.5,20.5 C 101.451,21.2823 102.951,22.6156 104,24.5C 104.667,50.8333 104.667,77.1667 104,103.5C 102.951,105.384 101.451,106.718 99.5,107.5C 99.5,78.5 99.5,49.5 99.5,20.5 Z"/></g>
<g><path style="opacity:1" fill="#4d4d48" d="M 33.5,49.5 C 53.178,49.167 72.8446,49.5004 92.5,50.5C 92.2907,51.086 91.9574,51.586 91.5,52C 72.5,52.6667 53.5,52.6667 34.5,52C 33.7476,51.3292 33.4142,50.4959 33.5,49.5 Z"/></g>
<g><path style="opacity:1" fill="#4e4e48" d="M 33.5,63.5 C 47.8488,63.1674 62.1821,63.5007 76.5,64.5C 76.2907,65.086 75.9574,65.586 75.5,66C 61.8333,66.6667 48.1667,66.6667 34.5,66C 33.7476,65.3292 33.4142,64.4959 33.5,63.5 Z"/></g>
<g><path style="opacity:1" fill="#484844" d="M 37.5,76.5 C 54.8333,76.5 72.1667,76.5 89.5,76.5C 89.5,77.5 89.5,78.5 89.5,79.5C 72.1667,79.5 54.8333,79.5 37.5,79.5C 37.5,78.5 37.5,77.5 37.5,76.5 Z"/></g>
<g><path style="opacity:1" fill="#6f7141" d="M 96.5,19.5 C 97.791,19.2627 98.791,19.596 99.5,20.5C 99.5,49.5 99.5,78.5 99.5,107.5C 98.791,108.404 97.791,108.737 96.5,108.5C 96.5,78.8333 96.5,49.1667 96.5,19.5 Z"/></g>
<g><path style="opacity:1" fill="#4c4c47" d="M 36.5,94.5 C 52.6553,94.0162 68.6553,94.5162 84.5,96C 76.3247,97.1541 67.9913,97.6541 59.5,97.5C 51.5,97.1667 43.5,96.8333 35.5,96.5C 35.8627,95.8165 36.1961,95.1499 36.5,94.5 Z"/></g>
</svg>
